<mxfile host="app.diagrams.net" modified="2023-05-16T09:52:06.877Z" agent="Mozilla/5.0 (Windows NT 10.0; Win64; x64) AppleWebKit/537.36 (KHTML, like Gecko) Chrome/113.0.0.0 Safari/537.36" etag="rW4tDw8TzvFZrodLBtqa" version="21.3.2" type="google">
  <diagram name="Page-1" id="Yvii5k7nsUfpM1pSNmzK">
    <mxGraphModel grid="1" page="1" gridSize="10" guides="1" tooltips="1" connect="1" arrows="1" fold="1" pageScale="1" pageWidth="827" pageHeight="1169" math="0" shadow="0">
      <root>
        <mxCell id="0" />
        <mxCell id="1" parent="0" />
        <mxCell id="agdYicgtWoYQ5q8GVUtn-8" value="" style="rounded=0;whiteSpace=wrap;html=1;" vertex="1" parent="1">
          <mxGeometry x="20" y="371.91" width="140" height="250" as="geometry" />
        </mxCell>
        <mxCell id="agdYicgtWoYQ5q8GVUtn-13" value="52075&lt;br&gt;FERRAJ&lt;br&gt;Yassine" style="text;html=1;strokeColor=none;fillColor=none;align=center;verticalAlign=middle;whiteSpace=wrap;rounded=0;" vertex="1" parent="1">
          <mxGeometry x="40" y="471.91" width="100" height="30" as="geometry" />
        </mxCell>
        <mxCell id="agdYicgtWoYQ5q8GVUtn-24" value="" style="rounded=0;whiteSpace=wrap;html=1;" vertex="1" parent="1">
          <mxGeometry x="630" y="60" width="150" height="250" as="geometry" />
        </mxCell>
        <mxCell id="agdYicgtWoYQ5q8GVUtn-33" value="" style="rounded=0;whiteSpace=wrap;html=1;" vertex="1" parent="1">
          <mxGeometry x="780" y="60" width="60" height="250" as="geometry" />
        </mxCell>
        <mxCell id="agdYicgtWoYQ5q8GVUtn-35" value="" style="line;strokeWidth=2;html=1;" vertex="1" parent="1">
          <mxGeometry x="730" y="60" width="40" height="10" as="geometry" />
        </mxCell>
        <mxCell id="agdYicgtWoYQ5q8GVUtn-36" value="" style="line;strokeWidth=2;html=1;" vertex="1" parent="1">
          <mxGeometry x="730" y="70" width="40" height="10" as="geometry" />
        </mxCell>
        <mxCell id="agdYicgtWoYQ5q8GVUtn-37" value="" style="line;strokeWidth=2;html=1;" vertex="1" parent="1">
          <mxGeometry x="730" y="80" width="40" height="10" as="geometry" />
        </mxCell>
        <mxCell id="agdYicgtWoYQ5q8GVUtn-40" value="Chapters" style="text;html=1;strokeColor=#9673a6;fillColor=#e1d5e7;align=center;verticalAlign=middle;whiteSpace=wrap;rounded=0;" vertex="1" parent="1">
          <mxGeometry x="785" y="115" width="50" height="30" as="geometry" />
        </mxCell>
        <mxCell id="agdYicgtWoYQ5q8GVUtn-41" value="Favorite" style="text;html=1;strokeColor=none;fillColor=none;align=center;verticalAlign=middle;whiteSpace=wrap;rounded=0;" vertex="1" parent="1">
          <mxGeometry x="785" y="70" width="50" height="30" as="geometry" />
        </mxCell>
        <mxCell id="agdYicgtWoYQ5q8GVUtn-53" value="" style="whiteSpace=wrap;html=1;" vertex="1" parent="1">
          <mxGeometry x="1230" y="56.91" width="160" height="255" as="geometry" />
        </mxCell>
        <mxCell id="agdYicgtWoYQ5q8GVUtn-56" value="&lt;h1&gt;Al - Fatiha&lt;/h1&gt;&lt;p&gt;This Surah is named Al-Fatihah because of its subject matter.&lt;br&gt;&lt;/p&gt;&lt;p&gt;&lt;br&gt;&lt;/p&gt;" style="text;html=1;strokeColor=none;fillColor=none;spacing=5;spacingTop=-20;whiteSpace=wrap;overflow=hidden;rounded=0;" vertex="1" parent="1">
          <mxGeometry x="1232.5" y="107.31" width="147.5" height="115" as="geometry" />
        </mxCell>
        <mxCell id="agdYicgtWoYQ5q8GVUtn-57" value="Sayyid Abul Ala Maududi - Tafhim al-Qur&#39;an - The Meaning of the Quran" style="text;html=1;strokeColor=none;fillColor=none;align=center;verticalAlign=middle;whiteSpace=wrap;rounded=0;fontStyle=2" vertex="1" parent="1">
          <mxGeometry x="1235" y="222.31" width="135" height="60" as="geometry" />
        </mxCell>
        <mxCell id="agdYicgtWoYQ5q8GVUtn-59" value="" style="rounded=0;whiteSpace=wrap;html=1;" vertex="1" parent="1">
          <mxGeometry x="1385" y="56.910000000000025" width="65" height="255" as="geometry" />
        </mxCell>
        <mxCell id="agdYicgtWoYQ5q8GVUtn-60" value="Chapters" style="text;html=1;strokeColor=none;fillColor=none;align=center;verticalAlign=middle;whiteSpace=wrap;rounded=0;" vertex="1" parent="1">
          <mxGeometry x="1387.5" y="119.81000000000003" width="50" height="30" as="geometry" />
        </mxCell>
        <mxCell id="agdYicgtWoYQ5q8GVUtn-67" value="" style="line;strokeWidth=2;html=1;" vertex="1" parent="1">
          <mxGeometry x="1310" y="61.910000000000025" width="40" height="10" as="geometry" />
        </mxCell>
        <mxCell id="agdYicgtWoYQ5q8GVUtn-70" value="" style="line;strokeWidth=2;html=1;" vertex="1" parent="1">
          <mxGeometry x="1310" y="71.91000000000003" width="40" height="10" as="geometry" />
        </mxCell>
        <mxCell id="agdYicgtWoYQ5q8GVUtn-71" value="" style="line;strokeWidth=2;html=1;" vertex="1" parent="1">
          <mxGeometry x="1310" y="81.91000000000003" width="40" height="10" as="geometry" />
        </mxCell>
        <mxCell id="agdYicgtWoYQ5q8GVUtn-74" value="" style="shape=flexArrow;endArrow=classic;html=1;rounded=0;" edge="1" parent="1">
          <mxGeometry width="50" height="50" relative="1" as="geometry">
            <mxPoint x="675" y="79.26000000000002" as="sourcePoint" />
            <mxPoint x="640" y="79.09" as="targetPoint" />
          </mxGeometry>
        </mxCell>
        <mxCell id="agdYicgtWoYQ5q8GVUtn-75" style="edgeStyle=orthogonalEdgeStyle;rounded=0;orthogonalLoop=1;jettySize=auto;html=1;exitX=0.5;exitY=1;exitDx=0;exitDy=0;" edge="1" parent="1" source="agdYicgtWoYQ5q8GVUtn-53" target="agdYicgtWoYQ5q8GVUtn-53">
          <mxGeometry relative="1" as="geometry" />
        </mxCell>
        <mxCell id="agdYicgtWoYQ5q8GVUtn-78" value="" style="shape=flexArrow;endArrow=classic;html=1;rounded=0;" edge="1" parent="1">
          <mxGeometry width="50" height="50" relative="1" as="geometry">
            <mxPoint x="1270" y="76.63000000000005" as="sourcePoint" />
            <mxPoint x="1235" y="76.46000000000004" as="targetPoint" />
          </mxGeometry>
        </mxCell>
        <mxCell id="agdYicgtWoYQ5q8GVUtn-79" style="edgeStyle=orthogonalEdgeStyle;rounded=0;orthogonalLoop=1;jettySize=auto;html=1;exitX=0.5;exitY=1;exitDx=0;exitDy=0;" edge="1" parent="1" source="agdYicgtWoYQ5q8GVUtn-53" target="agdYicgtWoYQ5q8GVUtn-53">
          <mxGeometry relative="1" as="geometry" />
        </mxCell>
        <mxCell id="agdYicgtWoYQ5q8GVUtn-83" value="" style="rounded=1;whiteSpace=wrap;html=1;" vertex="1" parent="1">
          <mxGeometry x="640" y="100" width="130" height="300" as="geometry" />
        </mxCell>
        <mxCell id="agdYicgtWoYQ5q8GVUtn-82" value="Juz" style="ellipse;whiteSpace=wrap;html=1;" vertex="1" parent="1">
          <mxGeometry x="710" y="110" width="50" height="30" as="geometry" />
        </mxCell>
        <mxCell id="agdYicgtWoYQ5q8GVUtn-81" value="Surat" style="ellipse;whiteSpace=wrap;html=1;fillColor=#e1d5e7;strokeColor=#9673a6;" vertex="1" parent="1">
          <mxGeometry x="650" y="110" width="50" height="30" as="geometry" />
        </mxCell>
        <mxCell id="agdYicgtWoYQ5q8GVUtn-132" style="edgeStyle=orthogonalEdgeStyle;rounded=0;orthogonalLoop=1;jettySize=auto;html=1;exitX=1;exitY=0.5;exitDx=0;exitDy=0;entryX=0.001;entryY=0.348;entryDx=0;entryDy=0;entryPerimeter=0;" edge="1" parent="1" source="agdYicgtWoYQ5q8GVUtn-84" target="agdYicgtWoYQ5q8GVUtn-133">
          <mxGeometry relative="1" as="geometry">
            <mxPoint x="947.6199999999999" y="165.25" as="targetPoint" />
          </mxGeometry>
        </mxCell>
        <mxCell id="agdYicgtWoYQ5q8GVUtn-84" value="1 Al - Fatiha" style="rounded=1;whiteSpace=wrap;html=1;fillColor=#e1d5e7;strokeColor=#9673a6;align=left;" vertex="1" parent="1">
          <mxGeometry x="650" y="150" width="110" height="30" as="geometry" />
        </mxCell>
        <mxCell id="agdYicgtWoYQ5q8GVUtn-85" value="2 Al - Baqarah" style="rounded=1;whiteSpace=wrap;html=1;align=left;" vertex="1" parent="1">
          <mxGeometry x="650" y="195" width="110" height="30" as="geometry" />
        </mxCell>
        <mxCell id="agdYicgtWoYQ5q8GVUtn-86" value="3 Ali - &#39;Imran" style="rounded=1;whiteSpace=wrap;html=1;align=left;" vertex="1" parent="1">
          <mxGeometry x="650" y="240" width="110" height="30" as="geometry" />
        </mxCell>
        <mxCell id="agdYicgtWoYQ5q8GVUtn-90" value="" style="rounded=0;whiteSpace=wrap;html=1;" vertex="1" parent="1">
          <mxGeometry x="221" y="50" width="150" height="250" as="geometry" />
        </mxCell>
        <mxCell id="agdYicgtWoYQ5q8GVUtn-92" value="" style="line;strokeWidth=2;html=1;" vertex="1" parent="1">
          <mxGeometry x="321" y="50" width="40" height="10" as="geometry" />
        </mxCell>
        <mxCell id="agdYicgtWoYQ5q8GVUtn-93" value="" style="line;strokeWidth=2;html=1;" vertex="1" parent="1">
          <mxGeometry x="321" y="60" width="40" height="10" as="geometry" />
        </mxCell>
        <mxCell id="agdYicgtWoYQ5q8GVUtn-94" value="" style="line;strokeWidth=2;html=1;" vertex="1" parent="1">
          <mxGeometry x="321" y="70" width="40" height="10" as="geometry" />
        </mxCell>
        <mxCell id="agdYicgtWoYQ5q8GVUtn-110" value="More read" style="text;html=1;strokeColor=none;fillColor=none;align=center;verticalAlign=middle;whiteSpace=wrap;rounded=0;" vertex="1" parent="1">
          <mxGeometry x="246" y="85" width="100" height="35" as="geometry" />
        </mxCell>
        <mxCell id="agdYicgtWoYQ5q8GVUtn-114" value="" style="rounded=1;whiteSpace=wrap;html=1;" vertex="1" parent="1">
          <mxGeometry x="231" y="115" width="375" height="75" as="geometry" />
        </mxCell>
        <mxCell id="agdYicgtWoYQ5q8GVUtn-117" value="2 Al - Baqarah" style="rounded=1;whiteSpace=wrap;html=1;" vertex="1" parent="1">
          <mxGeometry x="238.5" y="137.5" width="87.5" height="30" as="geometry" />
        </mxCell>
        <mxCell id="agdYicgtWoYQ5q8GVUtn-118" value="144 - An nas" style="rounded=1;whiteSpace=wrap;html=1;" vertex="1" parent="1">
          <mxGeometry x="346" y="137.5" width="110" height="30" as="geometry" />
        </mxCell>
        <mxCell id="agdYicgtWoYQ5q8GVUtn-119" value="4 - Al Nisa" style="rounded=1;whiteSpace=wrap;html=1;" vertex="1" parent="1">
          <mxGeometry x="476" y="137.5" width="110" height="30" as="geometry" />
        </mxCell>
        <mxCell id="agdYicgtWoYQ5q8GVUtn-120" style="edgeStyle=orthogonalEdgeStyle;rounded=0;orthogonalLoop=1;jettySize=auto;html=1;exitX=0.5;exitY=1;exitDx=0;exitDy=0;" edge="1" parent="1" source="agdYicgtWoYQ5q8GVUtn-114" target="agdYicgtWoYQ5q8GVUtn-114">
          <mxGeometry relative="1" as="geometry" />
        </mxCell>
        <mxCell id="agdYicgtWoYQ5q8GVUtn-91" value="" style="rounded=0;whiteSpace=wrap;html=1;" vertex="1" parent="1">
          <mxGeometry x="371" y="50" width="50" height="250" as="geometry" />
        </mxCell>
        <mxCell id="agdYicgtWoYQ5q8GVUtn-130" style="edgeStyle=orthogonalEdgeStyle;rounded=0;orthogonalLoop=1;jettySize=auto;html=1;exitX=1;exitY=0.5;exitDx=0;exitDy=0;entryX=-0.015;entryY=0.098;entryDx=0;entryDy=0;entryPerimeter=0;" edge="1" parent="1" source="agdYicgtWoYQ5q8GVUtn-95" target="agdYicgtWoYQ5q8GVUtn-24">
          <mxGeometry relative="1" as="geometry" />
        </mxCell>
        <mxCell id="agdYicgtWoYQ5q8GVUtn-95" value="Chapters" style="text;html=1;strokeColor=none;fillColor=none;align=center;verticalAlign=middle;whiteSpace=wrap;rounded=0;" vertex="1" parent="1">
          <mxGeometry x="371" y="115" width="50" height="30" as="geometry" />
        </mxCell>
        <mxCell id="agdYicgtWoYQ5q8GVUtn-96" value="Favorite" style="text;html=1;strokeColor=#9673a6;fillColor=#e1d5e7;align=center;verticalAlign=middle;whiteSpace=wrap;rounded=0;" vertex="1" parent="1">
          <mxGeometry x="371" y="50" width="50" height="30" as="geometry" />
        </mxCell>
        <mxCell id="agdYicgtWoYQ5q8GVUtn-100" value="Learn" style="text;html=1;strokeColor=none;fillColor=none;align=center;verticalAlign=middle;whiteSpace=wrap;rounded=0;" vertex="1" parent="1">
          <mxGeometry x="371" y="250" width="50" height="30" as="geometry" />
        </mxCell>
        <mxCell id="agdYicgtWoYQ5q8GVUtn-133" value="" style="rounded=0;whiteSpace=wrap;html=1;" vertex="1" parent="1">
          <mxGeometry x="940" y="60" width="150" height="250" as="geometry" />
        </mxCell>
        <mxCell id="agdYicgtWoYQ5q8GVUtn-134" value="" style="rounded=0;whiteSpace=wrap;html=1;" vertex="1" parent="1">
          <mxGeometry x="1090" y="60" width="60" height="250" as="geometry" />
        </mxCell>
        <mxCell id="agdYicgtWoYQ5q8GVUtn-135" value="" style="line;strokeWidth=2;html=1;" vertex="1" parent="1">
          <mxGeometry x="1040" y="60" width="40" height="10" as="geometry" />
        </mxCell>
        <mxCell id="agdYicgtWoYQ5q8GVUtn-136" value="" style="line;strokeWidth=2;html=1;" vertex="1" parent="1">
          <mxGeometry x="1040" y="70" width="40" height="10" as="geometry" />
        </mxCell>
        <mxCell id="agdYicgtWoYQ5q8GVUtn-137" value="" style="line;strokeWidth=2;html=1;" vertex="1" parent="1">
          <mxGeometry x="1040" y="80" width="40" height="10" as="geometry" />
        </mxCell>
        <mxCell id="agdYicgtWoYQ5q8GVUtn-138" value="Chapters" style="text;html=1;strokeColor=none;fillColor=none;align=center;verticalAlign=middle;whiteSpace=wrap;rounded=0;" vertex="1" parent="1">
          <mxGeometry x="1095" y="130" width="50" height="30" as="geometry" />
        </mxCell>
        <mxCell id="agdYicgtWoYQ5q8GVUtn-143" value="" style="shape=flexArrow;endArrow=classic;html=1;rounded=0;" edge="1" parent="1">
          <mxGeometry width="50" height="50" relative="1" as="geometry">
            <mxPoint x="985" y="79.26000000000002" as="sourcePoint" />
            <mxPoint x="950" y="79.09" as="targetPoint" />
          </mxGeometry>
        </mxCell>
        <mxCell id="agdYicgtWoYQ5q8GVUtn-150" value="&lt;h1&gt;Al - Fatiha&lt;/h1&gt;&lt;p&gt;In the Name of Allah—the Most Compassionate, Most Merciful.&amp;nbsp;&lt;br&gt;&lt;/p&gt;&lt;p&gt;All praise is for Allah—Lord of all worlds,&lt;br&gt;&lt;/p&gt;&lt;p&gt;the Most Compassionate, Most Mercifu&lt;/p&gt;&lt;p&gt;&lt;span style=&quot;background-color: initial;&quot;&gt;l&lt;/span&gt;&lt;br&gt;&lt;/p&gt;&lt;p&gt;Master of the Day of Judgment.&lt;br&gt;&lt;/p&gt;" style="text;html=1;strokeColor=none;fillColor=none;spacing=5;spacingTop=-20;whiteSpace=wrap;overflow=hidden;rounded=0;" vertex="1" parent="1">
          <mxGeometry x="950" y="137.5" width="132.5" height="292.5" as="geometry" />
        </mxCell>
        <mxCell id="agdYicgtWoYQ5q8GVUtn-152" value="Reading" style="text;html=1;strokeColor=#9673a6;fillColor=#e1d5e7;align=center;verticalAlign=middle;whiteSpace=wrap;rounded=0;" vertex="1" parent="1">
          <mxGeometry x="1095" y="190" width="50" height="30" as="geometry" />
        </mxCell>
        <mxCell id="agdYicgtWoYQ5q8GVUtn-153" value="Reading" style="text;html=1;strokeColor=none;fillColor=none;align=center;verticalAlign=middle;whiteSpace=wrap;rounded=0;" vertex="1" parent="1">
          <mxGeometry x="785" y="195" width="50" height="30" as="geometry" />
        </mxCell>
        <mxCell id="agdYicgtWoYQ5q8GVUtn-157" value="Reading" style="text;html=1;strokeColor=none;fillColor=none;align=center;verticalAlign=middle;whiteSpace=wrap;rounded=0;" vertex="1" parent="1">
          <mxGeometry x="1392.5" y="200.00000000000003" width="50" height="30" as="geometry" />
        </mxCell>
        <mxCell id="agdYicgtWoYQ5q8GVUtn-160" value="" style="rounded=0;whiteSpace=wrap;html=1;" vertex="1" parent="1">
          <mxGeometry x="221" y="300" width="199" height="60" as="geometry" />
        </mxCell>
        <mxCell id="agdYicgtWoYQ5q8GVUtn-163" value="" style="rounded=0;whiteSpace=wrap;html=1;" vertex="1" parent="1">
          <mxGeometry x="630" y="310" width="210" height="60" as="geometry" />
        </mxCell>
        <mxCell id="agdYicgtWoYQ5q8GVUtn-165" value="" style="html=1;verticalLabelPosition=bottom;align=center;labelBackgroundColor=#ffffff;verticalAlign=top;strokeWidth=2;shadow=0;dashed=0;shape=mxgraph.ios7.icons.book;" vertex="1" parent="1">
          <mxGeometry x="770" y="323.03999999999996" width="40" height="32.75" as="geometry" />
        </mxCell>
        <mxCell id="agdYicgtWoYQ5q8GVUtn-166" value="" style="rounded=0;whiteSpace=wrap;html=1;" vertex="1" parent="1">
          <mxGeometry x="940" y="310" width="210" height="60" as="geometry" />
        </mxCell>
        <mxCell id="agdYicgtWoYQ5q8GVUtn-168" value="" style="html=1;verticalLabelPosition=bottom;align=center;labelBackgroundColor=#ffffff;verticalAlign=top;strokeWidth=2;shadow=0;dashed=0;shape=mxgraph.ios7.icons.book;fillColor=#e1d5e7;strokeColor=#9673a6;" vertex="1" parent="1">
          <mxGeometry x="1080" y="322.24999999999994" width="40" height="32.75" as="geometry" />
        </mxCell>
        <mxCell id="agdYicgtWoYQ5q8GVUtn-170" value="" style="rounded=0;whiteSpace=wrap;html=1;" vertex="1" parent="1">
          <mxGeometry x="1230" y="311.91" width="220" height="60" as="geometry" />
        </mxCell>
        <mxCell id="agdYicgtWoYQ5q8GVUtn-172" value="" style="html=1;verticalLabelPosition=bottom;align=center;labelBackgroundColor=#ffffff;verticalAlign=top;strokeWidth=2;shadow=0;dashed=0;shape=mxgraph.ios7.icons.book;" vertex="1" parent="1">
          <mxGeometry x="1380" y="327.25" width="40" height="32.75" as="geometry" />
        </mxCell>
        <mxCell id="agdYicgtWoYQ5q8GVUtn-176" value="" style="html=1;verticalLabelPosition=bottom;align=center;labelBackgroundColor=#ffffff;verticalAlign=top;strokeWidth=2;shadow=0;dashed=0;shape=mxgraph.ios7.icons.book;" vertex="1" parent="1">
          <mxGeometry x="346" y="317.25" width="40" height="32.75" as="geometry" />
        </mxCell>
        <mxCell id="agdYicgtWoYQ5q8GVUtn-188" value="" style="sketch=0;outlineConnect=0;fontColor=#232F3E;gradientColor=none;fillColor=#4D27AA;strokeColor=none;dashed=0;verticalLabelPosition=bottom;verticalAlign=top;align=center;html=1;fontSize=12;fontStyle=0;aspect=fixed;pointerEvents=1;shape=mxgraph.aws4.download_distribution;" vertex="1" parent="1">
          <mxGeometry x="730" y="150" width="30" height="30" as="geometry" />
        </mxCell>
        <mxCell id="agdYicgtWoYQ5q8GVUtn-191" value="" style="verticalLabelPosition=bottom;verticalAlign=top;html=1;shape=mxgraph.basic.star;fillColor=#e1d5e7;strokeColor=#9673a6;" vertex="1" parent="1">
          <mxGeometry x="231" y="305" width="49" height="50" as="geometry" />
        </mxCell>
        <mxCell id="agdYicgtWoYQ5q8GVUtn-193" style="edgeStyle=orthogonalEdgeStyle;rounded=0;orthogonalLoop=1;jettySize=auto;html=1;exitX=1;exitY=0.5;exitDx=0;exitDy=0;entryX=-0.022;entryY=0.197;entryDx=0;entryDy=0;entryPerimeter=0;" edge="1" parent="1" source="agdYicgtWoYQ5q8GVUtn-192" target="agdYicgtWoYQ5q8GVUtn-53">
          <mxGeometry relative="1" as="geometry" />
        </mxCell>
        <mxCell id="agdYicgtWoYQ5q8GVUtn-192" value="Infos" style="ellipse;whiteSpace=wrap;html=1;fillColor=#e1d5e7;strokeColor=#9673a6;" vertex="1" parent="1">
          <mxGeometry x="989" y="100" width="50" height="30" as="geometry" />
        </mxCell>
        <mxCell id="agdYicgtWoYQ5q8GVUtn-194" value="" style="verticalLabelPosition=bottom;verticalAlign=top;html=1;shape=mxgraph.basic.star;" vertex="1" parent="1">
          <mxGeometry x="651" y="312.5" width="49" height="50" as="geometry" />
        </mxCell>
        <mxCell id="agdYicgtWoYQ5q8GVUtn-195" value="" style="verticalLabelPosition=bottom;verticalAlign=top;html=1;shape=mxgraph.basic.star;" vertex="1" parent="1">
          <mxGeometry x="960" y="314.41" width="49" height="50" as="geometry" />
        </mxCell>
        <mxCell id="agdYicgtWoYQ5q8GVUtn-196" value="" style="verticalLabelPosition=bottom;verticalAlign=top;html=1;shape=mxgraph.basic.star;" vertex="1" parent="1">
          <mxGeometry x="1250" y="317.25" width="49" height="50" as="geometry" />
        </mxCell>
        <mxCell id="agdYicgtWoYQ5q8GVUtn-198" value="Favorite" style="text;html=1;strokeColor=none;fillColor=none;align=center;verticalAlign=middle;whiteSpace=wrap;rounded=0;" vertex="1" parent="1">
          <mxGeometry x="1095" y="61.91" width="50" height="30" as="geometry" />
        </mxCell>
        <mxCell id="agdYicgtWoYQ5q8GVUtn-199" value="Favorite" style="text;html=1;strokeColor=none;fillColor=none;align=center;verticalAlign=middle;whiteSpace=wrap;rounded=0;" vertex="1" parent="1">
          <mxGeometry x="1392.5" y="61.91" width="50" height="30" as="geometry" />
        </mxCell>
        <mxCell id="agdYicgtWoYQ5q8GVUtn-202" value="" style="sketch=0;outlineConnect=0;fontColor=#232F3E;gradientColor=none;fillColor=#4D27AA;strokeColor=none;dashed=0;verticalLabelPosition=bottom;verticalAlign=top;align=center;html=1;fontSize=12;fontStyle=0;aspect=fixed;pointerEvents=1;shape=mxgraph.aws4.download_distribution;" vertex="1" parent="1">
          <mxGeometry x="730" y="195" width="30" height="30" as="geometry" />
        </mxCell>
        <mxCell id="agdYicgtWoYQ5q8GVUtn-203" value="" style="sketch=0;outlineConnect=0;fontColor=#232F3E;gradientColor=none;fillColor=#4D27AA;strokeColor=none;dashed=0;verticalLabelPosition=bottom;verticalAlign=top;align=center;html=1;fontSize=12;fontStyle=0;aspect=fixed;pointerEvents=1;shape=mxgraph.aws4.download_distribution;" vertex="1" parent="1">
          <mxGeometry x="730" y="240" width="30" height="30" as="geometry" />
        </mxCell>
        <mxCell id="ncO0N-_83fXLJsAgqEA6-3" value="" style="line;strokeWidth=2;html=1;" vertex="1" parent="1">
          <mxGeometry x="121" y="371.91" width="40" height="10" as="geometry" />
        </mxCell>
        <mxCell id="ncO0N-_83fXLJsAgqEA6-4" value="" style="line;strokeWidth=2;html=1;" vertex="1" parent="1">
          <mxGeometry x="121" y="381.91" width="40" height="10" as="geometry" />
        </mxCell>
        <mxCell id="ncO0N-_83fXLJsAgqEA6-5" value="" style="line;strokeWidth=2;html=1;" vertex="1" parent="1">
          <mxGeometry x="121" y="391.91" width="40" height="10" as="geometry" />
        </mxCell>
        <mxCell id="ncO0N-_83fXLJsAgqEA6-6" value="" style="shape=flexArrow;endArrow=classic;html=1;rounded=0;" edge="1" parent="1">
          <mxGeometry width="50" height="50" relative="1" as="geometry">
            <mxPoint x="66" y="391.17" as="sourcePoint" />
            <mxPoint x="31" y="391.00000000000006" as="targetPoint" />
          </mxGeometry>
        </mxCell>
        <mxCell id="ncO0N-_83fXLJsAgqEA6-8" style="edgeStyle=orthogonalEdgeStyle;rounded=0;orthogonalLoop=1;jettySize=auto;html=1;exitX=0.5;exitY=1;exitDx=0;exitDy=0;" edge="1" parent="1">
          <mxGeometry relative="1" as="geometry">
            <mxPoint x="209" y="511.91" as="sourcePoint" />
            <mxPoint x="209" y="511.91" as="targetPoint" />
          </mxGeometry>
        </mxCell>
        <mxCell id="ncO0N-_83fXLJsAgqEA6-9" value="" style="rounded=0;whiteSpace=wrap;html=1;" vertex="1" parent="1">
          <mxGeometry x="161" y="371.91" width="50" height="250" as="geometry" />
        </mxCell>
        <mxCell id="ncO0N-_83fXLJsAgqEA6-10" value="Chapters" style="text;html=1;strokeColor=none;fillColor=none;align=center;verticalAlign=middle;whiteSpace=wrap;rounded=0;" vertex="1" parent="1">
          <mxGeometry x="161" y="436.91" width="50" height="30" as="geometry" />
        </mxCell>
        <mxCell id="ncO0N-_83fXLJsAgqEA6-11" value="Favorite" style="text;html=1;strokeColor=#9673a6;fillColor=#e1d5e7;align=center;verticalAlign=middle;whiteSpace=wrap;rounded=0;" vertex="1" parent="1">
          <mxGeometry x="161" y="371.91" width="50" height="30" as="geometry" />
        </mxCell>
        <mxCell id="ncO0N-_83fXLJsAgqEA6-12" value="Learn" style="text;html=1;strokeColor=none;fillColor=none;align=center;verticalAlign=middle;whiteSpace=wrap;rounded=0;" vertex="1" parent="1">
          <mxGeometry x="161" y="571.91" width="50" height="30" as="geometry" />
        </mxCell>
      </root>
    </mxGraphModel>
  </diagram>
</mxfile>
